HIERARCHY
ROOT Hips
{
	OFFSET 0.00000 0.00000 0.00000
	CHANNELS 6 Xposition Yposition Zposition Zrotation Yrotation Xrotation 
	JOINT LHipJoint
	{
		OFFSET 0 0 0
		CHANNELS 3 Zrotation Yrotation Xrotation
		JOINT LeftUpLeg
		{
			OFFSET 1.37590 -1.78394 0.89329
			CHANNELS 3 Zrotation Yrotation Xrotation
			JOINT LeftLeg
			{
				OFFSET 2.47928 -6.81178 0.00000
				CHANNELS 3 Zrotation Yrotation Xrotation
				JOINT LeftFoot
				{
					OFFSET 2.63345 -7.23535 0.00000
					CHANNELS 3 Zrotation Yrotation Xrotation
					JOINT LeftToeBase
					{
						OFFSET 0.23938 -0.65768 2.27012
						CHANNELS 3 Zrotation Yrotation Xrotation
						End Site
						{
							OFFSET 0.00000 -0.00000 1.18363
						}
					}
				}
			}
		}
	}
	JOINT RHipJoint
	{
		OFFSET 0 0 0
		CHANNELS 3 Zrotation Yrotation Xrotation
		JOINT RightUpLeg
		{
			OFFSET -1.33617 -1.78394 0.89329
			CHANNELS 3 Zrotation Yrotation Xrotation
			JOINT RightLeg
			{
				OFFSET -2.56922 -7.05888 0.00000
				CHANNELS 3 Zrotation Yrotation Xrotation
				JOINT RightFoot
				{
					OFFSET -2.56568 -7.04915 0.00000
					CHANNELS 3 Zrotation Yrotation Xrotation
					JOINT RightToeBase
					{
						OFFSET -0.27533 -0.75646 2.18105
						CHANNELS 3 Zrotation Yrotation Xrotation
						End Site
						{
							OFFSET -0.00000 -0.00000 1.15233
						}
					}
				}
			}
		}
	}
	JOINT LowerBack
	{
		OFFSET 0 0 0
		CHANNELS 3 Zrotation Yrotation Xrotation
		JOINT Spine
		{
			OFFSET 0.06190 2.15152 -0.00935
			CHANNELS 3 Zrotation Yrotation Xrotation
			JOINT Spine1
			{
				OFFSET 0.06334 2.15332 0.00872
				CHANNELS 3 Zrotation Yrotation Xrotation
				JOINT Neck
				{
					OFFSET 0 0 0
					CHANNELS 3 Zrotation Yrotation Xrotation
					JOINT Neck1
					{
						OFFSET -0.04202 1.66908 0.23524
						CHANNELS 3 Zrotation Yrotation Xrotation
						JOINT Head
						{
							OFFSET 0.07510 1.69357 -0.24440
							CHANNELS 3 Zrotation Yrotation Xrotation
							End Site
							{
								OFFSET 0.02556 1.71719 -0.11000
							}
						}
					}
				}
				JOINT LeftShoulder
				{
					OFFSET 0 0 0
					CHANNELS 3 Zrotation Yrotation Xrotation
					JOINT LeftArm
					{
						OFFSET 3.67168 1.26306 -0.41342
						CHANNELS 3 Zrotation Yrotation Xrotation
						JOINT LeftForeArm
						{
							OFFSET 4.68510 -0.00000 -0.00000
							CHANNELS 3 Zrotation Yrotation Xrotation
							JOINT LeftHand
							{
								OFFSET 3.39626 -0.00000 -0.00000
								CHANNELS 3 Zrotation Yrotation Xrotation
								JOINT LeftFingerBase
								{
									OFFSET 0 0 0
									CHANNELS 3 Zrotation Yrotation Xrotation
									JOINT LeftHandIndex1
									{
										OFFSET 0.48608 -0.00000 -0.00000
										CHANNELS 3 Zrotation Yrotation Xrotation
										End Site
										{
											OFFSET 0.39189 -0.00000 -0.00000
										}
									}
								}
								JOINT LThumb
								{
									OFFSET 0 0 0
									CHANNELS 3 Zrotation Yrotation Xrotation
									End Site
									{
										OFFSET 0.39787 -0.00000 0.39787
									}
								}
							}
						}
					}
				}
				JOINT RightShoulder
				{
					OFFSET 0 0 0
					CHANNELS 3 Zrotation Yrotation Xrotation
					JOINT RightArm
					{
						OFFSET -3.04136 1.42992 -0.76390
						CHANNELS 3 Zrotation Yrotation Xrotation
						JOINT RightForeArm
						{
							OFFSET -5.55576 -0.00000 -0.00000
							CHANNELS 3 Zrotation Yrotation Xrotation
							JOINT RightHand
							{
								OFFSET -3.32774 -0.00000 -0.00000
								CHANNELS 3 Zrotation Yrotation Xrotation
								JOINT RightFingerBase
								{
									OFFSET 0 0 0
									CHANNELS 3 Zrotation Yrotation Xrotation
									JOINT RightHandIndex1
									{
										OFFSET -0.50763 -0.00000 -0.00000
										CHANNELS 3 Zrotation Yrotation Xrotation
										End Site
										{
											OFFSET -0.40926 -0.00000 -0.00000
										}
									}
								}
								JOINT RThumb
								{
									OFFSET 0 0 0
									CHANNELS 3 Zrotation Yrotation Xrotation
									End Site
									{
										OFFSET -0.41551 -0.00000 0.41551
									}
								}
							}
						}
					}
				}
			}
		}
	}
}
MOTION
Frames: 15
Frame Time: .0083333
42.0324 17.8117 6.5662 0 0 0 0 0 0 -21 0 0 0 0 0 0 0 0 0 0 0 0 0 0 21 0 0 0 0 0 0 0 0 0 0 0 0 0 0 0 0 0 0 0 0 0 0 -16 0 0 21 0 0 11 0 0 0 -8 0 0 0 0 0 0 0 0 0 0 0 0 0 0 0 0 0 0 0 0 8 0 0 0 0 0 0 0 0 0 0 0 0 0 0 0 0 0
42.0324 17.8117 6.5662 -114.6160 -83.2941 124.2210 0.0000 0.0000 0.0000 -11.0436 -7.0023 -5.9318 0.2662 3.3191 9.1683 0.1830 3.7808 -10.3783 0.0321 1.1567 3.1801 0.0000 0.0000 0.0000 28.0691 5.8756 -9.9839 -0.6648 -5.2144 14.5212 -0.0778 -7.6979 -12.5010 -0.7764 -5.6259 15.7028 2.4790 -0.0927 -4.2463 3.0465 -0.3574 -0.4193 1.7196 -0.1924 1.9562 -5.9150 -3.5379 -25.1763 12.0785 -4.7263 6.6712 4.3336 -1.4768 6.5239 0.0000 0.0000 0.0000 -94.3401 -8.1619 7.0224 12.4643 -20.4972 -2.2622 -0.0000 -0.0000 33.5429 17.1534 17.7524 5.3764 -7.1250 0.0000 -0.0000 -10.5112 48.2192 -0.8434 0.0000 0.0000 0.0000 84.4286 10.8875 18.2123 -15.1024 24.2885 -3.2679 0.0000 0.0000 12.9171 -16.2560 -28.0582 7.8096 7.1250 -0.0000 -0.0000 16.0227 -58.2948 -5.2988
42.0295 17.8111 6.5611 -113.8890 -83.3732 123.4700 0.0000 0.0000 0.0000 -11.0658 -7.0082 -5.9060 0.2662 3.3191 9.1685 0.1846 3.6912 -10.3371 0.0337 1.1858 3.2602 0.0000 0.0000 0.0000 28.0551 5.8587 -9.9586 -0.6655 -5.2173 14.5294 -0.0777 -7.7618 -12.5787 -0.7685 -5.5980 15.6224 2.6112 -0.0973 -4.1434 2.9596 -0.3579 -0.5245 1.5559 -0.1923 1.7888 -5.9542 -3.5567 -25.0350 12.1411 -4.7622 6.8174 4.3574 -1.4884 6.5568 -0.0000 -0.0000 0.0000 -94.0040 -8.1483 6.8992 12.5084 -20.5627 -2.2777 -0.0000 -0.0000 33.2129 17.3295 17.9122 5.4818 -7.1250 0.0000 -0.0000 -10.3941 48.4069 -0.8823 -0.0000 -0.0000 0.0000 84.7040 10.6606 17.9131 -14.9023 24.0098 -3.1861 0.0000 0.0000 13.1588 -18.3713 -24.4581 7.8290 7.1250 -0.0000 -0.0000 11.8624 -55.1930 -2.9997
42.0276 17.8106 6.5566 -113.2480 -83.4620 122.8040 0.0000 0.0000 0.0000 -11.1021 -7.0231 -5.8779 0.2660 3.3176 9.1643 0.1884 3.5745 -10.3158 0.0365 1.2328 3.3896 0.0000 0.0000 0.0000 28.0181 5.7950 -9.9594 -0.6685 -5.2285 14.5616 -0.0770 -7.8163 -12.6344 -0.7669 -5.5922 15.6056 2.6203 -0.1324 -4.1988 2.9404 -0.4067 -0.5317 1.5281 -0.2162 1.8127 -5.9454 -3.5185 -24.8515 12.1125 -4.7160 6.8556 4.3524 -1.4715 6.5354 0.0000 0.0000 0.0000 -93.7946 -8.2466 6.6517 12.5563 -20.6337 -2.2946 -0.0000 -0.0000 32.9441 17.4698 18.1086 5.5869 -7.1250 0.0000 -0.0000 -10.3220 48.6270 -0.9326 0.0000 0.0000 0.0000 84.8832 10.5622 17.7053 -14.7002 23.7268 -3.1043 0.0000 0.0000 13.4073 -18.9526 -24.1454 7.9960 7.1250 -0.0000 -0.0000 11.1226 -54.9937 -2.7549
42.0254 17.8096 6.5514 -112.3260 -83.5248 121.8660 0.0000 0.0000 0.0000 -11.0848 -7.0104 -5.8943 0.2676 3.3280 9.1934 0.1937 3.4363 -10.3111 0.0320 1.1550 3.1753 0.0000 0.0000 0.0000 28.0284 5.7928 -9.9271 -0.6675 -5.2250 14.5514 -0.0724 -7.9152 -12.6772 -0.7697 -5.6023 15.6347 1.8370 -0.3595 -5.3815 3.6083 -0.7214 -1.7866 2.6358 -0.3954 1.2040 -7.0699 -2.7815 -15.7944 12.1510 -3.4686 3.6019 4.6543 -1.2235 3.9970 -0.0000 0.0000 0.0000 -94.6682 -4.7799 6.0283 12.9256 -21.1781 -2.4263 -0.0000 -0.0000 32.5357 17.4604 17.9813 5.5461 -7.1250 0.0000 -0.0000 -10.2915 48.4961 -0.8963 -0.0000 0.0000 0.0000 84.0050 7.0876 18.5176 -14.7583 23.8083 -3.1277 0.0000 0.0000 13.2762 -19.1961 -23.7123 7.9702 7.1250 -0.0000 -0.0000 10.6821 -54.6043 -2.5422
42.0228 17.8089 6.5468 -111.7050 -83.6185 121.2310 0.0000 0.0000 0.0000 -11.1329 -7.0634 -5.8756 0.2690 3.3366 9.2173 0.1971 3.3488 -10.3092 0.0094 0.6254 1.7185 0.0000 0.0000 0.0000 27.9780 5.7496 -9.9220 -0.6688 -5.2300 14.5657 -0.0725 -7.9492 -12.7209 -0.7558 -5.5525 15.4914 2.4606 -0.2923 -4.8698 3.1150 -0.6119 -2.2370 1.7878 -0.3453 0.4401 -6.7408 -2.7626 -15.2478 12.3328 -3.5703 3.8517 4.6501 -1.2699 3.9955 0.0000 0.0000 0.0000 -93.7160 -4.0876 6.3285 13.0336 -21.3364 -2.4655 -0.0000 -0.0000 31.9296 17.5883 18.1573 5.6416 -7.1250 0.0000 -0.0000 -10.2247 48.6939 -0.9406 0.0000 0.0000 0.0000 84.9438 6.2334 18.0011 -14.5935 23.5768 -3.0615 0.0000 0.0000 13.6282 -16.0585 -29.2641 8.0096 7.1250 -0.0000 -0.0000 17.0247 -59.4111 -6.1009
42.0204 17.8077 6.5424 -110.8290 -83.6703 120.3490 0.0000 0.0000 0.0000 -11.1066 -7.0851 -5.8859 0.2710 3.3487 9.2512 0.2016 3.2171 -10.2969 0.0364 1.2310 3.3846 0.0000 0.0000 0.0000 27.9867 5.7381 -9.9227 -0.6707 -5.2372 14.5862 -0.0727 -8.0226 -12.8170 -0.7616 -5.5733 15.5511 2.0995 -0.3713 -5.3078 3.4050 -0.7362 -1.9546 2.2783 -0.4032 0.9846 -6.8371 -2.7255 -15.3456 12.0598 -3.4561 3.7110 4.5885 -1.2280 3.9509 -0.0000 0.0000 0.0000 -93.9843 -4.6757 5.8191 13.0129 -21.3060 -2.4580 -0.0000 -0.0000 32.0387 17.5833 17.9315 5.5725 -7.1250 0.0000 -0.0000 -10.1600 48.4635 -0.8764 -0.0000 0.0000 0.0000 84.6518 6.6179 18.0034 -14.4010 23.3050 -2.9849 0.0000 0.0000 13.5572 -15.8584 -29.7360 8.0202 7.1250 -0.0000 -0.0000 17.5683 -59.8158 -6.4739
42.0183 17.8067 6.5384 -109.9480 -83.7226 119.4480 0.0000 0.0000 0.0000 -11.0986 -7.1058 -5.8713 0.2714 3.3511 9.2578 0.2055 3.1011 -10.2863 0.0362 1.2282 3.3769 0.0000 0.0000 0.0000 27.9890 5.6755 -9.9373 -0.6751 -5.2538 14.6339 -0.0754 -8.0381 -12.8855 -0.7689 -5.5992 15.6258 2.1984 -0.3836 -5.3056 3.3509 -0.7558 -1.9494 2.1656 -0.4128 0.9873 -6.7530 -2.7292 -15.4009 12.0022 -3.4776 3.8134 4.5548 -1.2358 3.9900 0.0000 0.0000 0.0000 -93.7238 -4.8138 5.6910 13.0327 -21.3352 -2.4652 -0.0000 -0.0000 31.8698 17.6239 18.3513 5.7116 -7.1250 0.0000 -0.0000 -10.2515 48.8964 -0.9947 0.0000 0.0000 0.0000 84.9199 6.6002 17.4229 -14.0746 22.8413 -2.8570 0.0000 0.0000 14.2048 -15.6023 -28.6019 7.6142 7.1250 -0.0000 -0.0000 17.0615 -58.6731 -5.8111
42.0152 17.8055 6.5346 -108.8570 -83.7809 118.3280 0.0000 0.0000 0.0000 -11.0913 -7.1371 -5.8540 0.2728 3.3595 9.2813 0.2098 2.9988 -10.2938 0.0328 1.1694 3.2149 0.0000 0.0000 0.0000 27.9986 5.6233 -9.9120 -0.6757 -5.2564 14.6413 -0.0714 -8.1392 -12.9424 -0.7684 -5.5973 15.6205 2.2808 -0.3964 -5.3370 3.3108 -0.7790 -1.8573 2.0758 -0.4231 1.0984 -6.6373 -2.7528 -15.7134 11.9237 -3.5254 3.9705 4.5068 -1.2487 4.0885 0.0000 -0.0000 0.0000 -93.4844 -5.1094 5.5152 13.0380 -21.3428 -2.4671 -0.0000 -0.0000 31.7933 17.4616 18.2380 5.6225 -7.1250 0.0000 -0.0000 -10.3703 48.7572 -0.9706 0.0000 -0.0000 0.0000 85.1802 6.7218 16.8972 -13.8236 22.4820 -2.7603 0.0000 0.0000 14.6989 -16.1366 -28.5798 7.8802 7.1250 -0.0000 -0.0000 16.4831 -58.7715 -5.6462
42.0119 17.8037 6.5306 -108.3500 -83.8451 117.8000 0.0000 0.0000 0.0000 -11.1192 -7.1292 -5.8106 0.2709 3.3478 9.2486 0.2103 2.8917 -10.2268 0.0413 1.3113 3.6057 0.0000 0.0000 0.0000 27.9666 5.5498 -9.9262 -0.6803 -5.2736 14.6906 -0.0753 -8.1346 -13.0054 -0.7536 -5.5447 15.4688 2.3247 -0.4266 -5.4029 3.2744 -0.8237 -1.8438 2.0102 -0.4450 1.1488 -6.5725 -2.7179 -15.6232 11.8572 -3.4917 4.0270 4.4781 -1.2353 4.0851 0.0000 -0.0000 0.0000 -93.2605 -5.1427 5.4483 13.1060 -21.4424 -2.4919 -0.0000 -0.0000 31.4281 17.3480 18.7091 5.7220 -7.1250 0.0000 -0.0000 -10.6288 49.2183 -1.1170 0.0000 -0.0000 0.0000 85.4239 6.6790 16.6013 -13.5428 22.0773 -2.6538 0.0000 0.0000 14.9002 -15.9649 -27.8816 7.6201 7.1250 -0.0000 -0.0000 16.2177 -58.0602 -5.2734
42.0089 17.8026 6.5277 -107.2540 -83.9108 116.6850 0.0000 0.0000 0.0000 -11.1315 -7.1336 -5.8195 0.2734 3.3633 9.2918 0.2135 2.7572 -10.1944 0.0403 1.2950 3.5608 0.0000 0.0000 0.0000 27.9552 5.4901 -9.9239 -0.6820 -5.2802 14.7096 -0.0752 -8.1888 -13.0727 -0.7622 -5.5753 15.5570 2.4044 -0.4662 -5.4581 3.2378 -0.8831 -1.7969 1.9232 -0.4737 1.2271 -6.5051 -2.7050 -15.7114 11.8037 -3.4880 4.1444 4.4507 -1.2295 4.1321 -0.0000 0.0000 0.0000 -93.0594 -5.3159 5.1876 13.0833 -21.4091 -2.4836 -0.0000 -0.0000 31.5681 17.3238 18.2042 5.5656 -7.1250 0.0000 -0.0000 -10.4904 48.7026 -0.9678 -0.0000 0.0000 0.0000 85.6410 6.7397 16.1820 -13.2323 21.6267 -2.5383 0.0000 0.0000 15.4935 -15.8429 -27.9281 7.5709 7.1250 -0.0000 -0.0000 16.3747 -58.0785 -5.3335
42.0092 17.8020 6.5221 -106.2280 -84.0007 115.6340 0.0000 0.0000 0.0000 -11.1620 -7.1404 -5.8380 0.2757 3.3775 9.3315 0.2161 2.6232 -10.1519 0.0367 1.2363 3.3992 0.0000 0.0000 0.0000 27.9246 5.4536 -9.9476 -0.6894 -5.3080 14.7892 -0.0757 -8.2516 -13.1611 -0.7519 -5.5386 15.4512 2.4245 -0.5097 -5.4667 3.1988 -0.9418 -1.7466 1.8675 -0.5018 1.2837 -6.4876 -2.6991 -15.8069 11.8098 -3.4859 4.2063 4.4502 -1.2237 4.1660 0.0000 -0.0000 0.0000 -92.8483 -5.4725 5.0634 13.1051 -21.4410 -2.4916 -0.0000 -0.0000 31.4680 17.1611 18.4533 5.5828 -7.1250 0.0000 -0.0000 -10.7241 48.9310 -1.0507 0.0000 -0.0000 0.0000 85.8429 6.8129 15.8744 -12.9488 21.2121 -2.4347 0.0000 0.0000 15.8534 -15.8519 -27.6592 7.5090 7.1250 -0.0000 -0.0000 16.1980 -57.8208 -5.1728
42.0066 17.8008 6.5180 -105.3130 -84.0389 114.6930 0.0000 0.0000 0.0000 -11.1574 -7.1236 -5.8348 0.2768 3.3839 9.3495 0.2174 2.5337 -10.1163 0.0318 1.1510 3.1644 0.0000 0.0000 0.0000 27.9395 5.4137 -9.9365 -0.6922 -5.3186 14.8195 -0.0726 -8.3411 -13.2206 -0.7564 -5.5547 15.4976 2.4625 -0.5340 -5.5278 3.1973 -0.9789 -1.7734 1.8417 -0.5207 1.2901 -6.5081 -2.6781 -15.5110 11.7996 -3.4623 4.2138 4.4528 -1.2205 4.1185 -0.0000 -0.0000 0.0000 -92.7134 -5.4032 4.9189 13.1112 -21.4499 -2.4938 -0.0000 -0.0000 31.5657 17.1994 18.2709 5.5429 -7.1250 0.0000 -0.0000 -10.6294 48.7518 -0.9939 -0.0000 -0.0000 0.0000 85.9842 6.5562 15.7373 -12.7902 20.9790 -2.3776 0.0000 0.0000 16.1473 -17.9405 -24.7785 7.7276 7.1250 -0.0000 -0.0000 12.4567 -55.4273 -3.2248
42.0060 17.8000 6.5144 -104.6410 -84.0940 114.0100 0.0000 0.0000 0.0000 -11.1766 -7.1445 -5.8438 0.2783 3.3933 9.3758 0.2185 2.4555 -10.0868 0.0359 1.2237 3.3645 0.0000 0.0000 0.0000 27.9141 5.3405 -9.9882 -0.6992 -5.3450 14.8951 -0.0775 -8.3285 -13.2890 -0.7466 -5.5194 15.3961 2.5505 -0.5571 -5.6580 3.1304 -1.0210 -1.6539 1.7184 -0.5390 1.4835 -6.4484 -2.6730 -15.6189 11.7962 -3.4650 4.2261 4.4414 -1.2180 4.1389 0.0000 0.0000 0.0000 -92.5029 -5.6548 4.7532 13.1042 -21.4398 -2.4913 -0.0000 -0.0000 31.5300 17.2516 18.7595 5.7031 -7.1250 0.0000 -0.0000 -10.7371 49.2548 -1.1384 0.0000 0.0000 0.0000 86.2667 6.6776 15.4464 -12.5401 20.6097 -2.2889 0.0000 0.0000 16.4646 -19.1098 -23.8691 7.9808 7.1250 -0.0000 -0.0000 10.8387 -54.7459 -2.6177
42.0037 17.7987 6.5109 -103.9720 -84.1622 113.3180 0.0000 0.0000 0.0000 -11.2200 -7.1226 -5.8480 0.2806 3.4072 9.4146 0.2234 2.3387 -10.1054 0.0318 1.1514 3.1655 0.0000 0.0000 0.0000 27.8822 5.3113 -9.9903 -0.7043 -5.3641 14.9500 -0.0782 -8.3780 -13.3630 -0.7304 -5.4604 15.2265 2.5253 -0.5747 -5.5515 3.1424 -1.0365 -1.7200 1.7456 -0.5481 1.3569 -6.4508 -2.6779 -15.6416 11.7196 -3.4763 4.4347 4.4176 -1.2208 4.2050 0.0000 -0.0000 0.0000 -92.4195 -5.6090 4.5916 13.0670 -21.3853 -2.4777 -0.0000 -0.0000 31.6542 17.1537 18.6449 5.6358 -7.1250 0.0000 -0.0000 -10.7931 49.1239 -1.1093 0.0000 -0.0000 0.0000 86.4041 6.4693 14.9685 -12.3093 20.2668 -2.2082 0.0000 0.0000 16.9119 -19.3327 -22.9757 7.7979 7.1250 -0.0000 -0.0000 10.2330 -53.8844 -2.2532
